<?xml version="1.0" encoding="UTF-8"?>
<!DOCTYPE svg PUBLIC "-//W3C//DTD SVG 1.1//EN" "http://www.w3.org/Graphics/SVG/1.1/DTD/svg11.dtd">
<!-- Creator: CorelDRAW -->
<svg xmlns="http://www.w3.org/2000/svg" xml:space="preserve" width="50px" height="50px" version="1.1" style="shape-rendering:geometricPrecision; text-rendering:geometricPrecision; image-rendering:optimizeQuality; fill-rule:evenodd; clip-rule:evenodd"
viewBox="0 0 50 50"
 xmlns:xlink="http://www.w3.org/1999/xlink"
 xmlns:xodm="http://www.corel.com/coreldraw/odm/2003">
 <defs>
  <style type="text/css">
   <![CDATA[
    .str0 {stroke:#FEFEFE;stroke-width:2.36;stroke-miterlimit:22.9256}
    .fil0 {fill:#FEFEFE}
   ]]>
  </style>
 </defs>
 <g id="Camada_x0020_1">
  <metadata id="CorelCorpID_0Corel-Layer"/>
  <g id="_2206922563168">
   <g>
    <path class="fil0" d="M15.01 27.9l0.46 0.05c-0.38,0.7 -0.69,1.74 -1.04,2.47 -0.87,1.82 -0.27,0.24 -0.4,1.54 -0.02,0.19 -0.13,0.57 -0.16,0.8 -0.37,2.19 0.29,3.95 1.12,5.57 -1.38,-0.79 -3.03,-4.42 -2.48,-7.07 0.42,-2.06 1.61,-3.3 2.42,-5.09 0.35,-0.76 0.31,-1.2 0.55,-1.83 0.7,1.1 0.13,2.77 -0.47,3.56zm9.42 -9.72c-0.42,-1.2 -0.71,-0.83 -0.29,-2.85l0.29 0.61c1.02,3.34 2.84,6.27 3.3,8.26 0.87,3.77 -0.55,6.5 -3.12,8.73 0.2,-0.52 0.78,-1.27 1.09,-1.97 1.58,-3.52 0.87,-4.8 0.26,-7.51 -0.3,-1.34 0.44,0.5 0.17,-0.58l-1.69 -3.75c-0.23,-0.75 0.21,-0.32 -0.01,-0.94zm-4.45 -10.93l-2.18 -0.97c1.43,1.8 2.29,1.52 3.63,2.7 -4.68,-0.43 -6.16,-2.96 -7.36,-3.56 0.72,1.97 2.33,2.6 3.64,3.86l-2.37 -0.64 3.83 2.01 -0.84 1.29 2.43 -0.7c-0.83,0.64 -2.04,2.37 -2.14,3.98l1.74 -1.4c-0.79,1.41 -1.79,2.9 -1.5,5.18l0.89 -1.81c-0.06,1.39 -0.05,3.01 0.75,3.98l0.04 -2.11c0.75,3.57 0.84,4.31 0.35,7.94l1.19 -1.84c0.65,2.26 -1.66,5.61 -2.77,6.26l0.03 -5.33 0.9 1.85c0.52,-2.92 -0.6,-4.31 -1.73,-5.81l2.01 1.22c-0.73,-2.06 -1.4,-2.22 -3.11,-3.25l0.94 -0.16c-0.6,-0.4 -1.87,-0.92 -2.55,-0.85 -0.37,0.03 -0.62,0.36 -0.96,0.62 -1.27,1 -0.19,0.37 -0.28,0.64l-1.46 0.14c1.69,-1.02 3.36,-2.51 3.93,-4.85l-3.78 2.34c1.02,-2.21 1.05,-5.52 -0.36,-7.5 -0.02,2.98 -0.61,6.87 -2.71,7.79 0.43,-1.46 0.37,-4.15 -0.46,-5.36l-1.23 5.71c-0.46,-0.11 -0.58,-1.18 -0.71,0.66 -0.14,1.96 -0.16,0.79 -0.42,0.82 -0.3,0.96 -0.33,2.18 -1.07,2.41l0.49 0.71c-2.58,1.89 -1.33,0.37 -2.07,0.78 -0.1,2.37 0.8,2.63 2.17,3.7l-0.38 -1.57 4.57 -2.36c-0.69,1.04 -1.24,2.58 -2.63,2.04l0.2 0.7 -0.95 0.36 3.3 2.75c0.24,-2.57 -1.57,-3.75 2.35,-3.74l-0.83 -0.6 1.38 -0.78c0.35,1.97 -2.19,4.5 -2.65,7.18 -0.44,2.62 0.83,6.2 2.34,7.23 1.73,1.18 4.62,2.15 6.57,3.31 2.64,1.56 3.49,2.71 5.27,4.78 1.44,-1.41 1.43,-2.09 3.91,-3.91 1.49,-1.09 3.24,-1.89 5.16,-2.78 2.98,-1.39 2.73,-1.01 4.4,-3.54 1.14,-1.72 1.72,-4.4 0.75,-6.38 0.25,3.69 -1.59,5.81 -4.69,6.47 -4.08,0.89 -5.13,0.26 -9.09,2.02 1.95,-1.87 4.98,-1.79 6.7,-3.56 1.6,-1.64 2.48,-5.38 1.1,-7.96 -0.02,1.99 -0.12,3.16 -1.31,4.29 0.41,-1.94 -0.07,-2.47 -0.17,-3.28 -0.13,-1.05 0.01,-0.24 0.1,-0.38 0.16,-0.25 0.15,0.13 0.07,-0.34 -0.06,-0.28 -0.13,-0.33 -0.15,-0.73 -0.18,-3.13 3.25,-0.39 3.54,-0.29l-0.93 0.61c3.81,-0.01 2.47,1.18 2.27,3.77l3.48 -2.96 -0.91 0.03 0.27 -0.82c-0.87,0.09 -0.78,0.47 -1.52,-0.37 -0.36,-0.41 -0.9,-1.09 -1.11,-1.52 1.12,0.11 1.47,0.69 2.12,1.06 0.7,0.39 0.82,0.16 1.32,0.38 0,0 0.94,0.67 0.94,0.67l-0.23 1.58c0.48,-0.2 1.16,-1.03 1.53,-1.42 0.86,-0.93 0.63,-0.88 0.56,-2.45 -1.45,0.77 -0.53,0.08 -1.99,-0.5 0.66,-1.28 0.45,-0.01 -0.06,-1.29 -0.17,-0.42 -0.31,-1.25 -0.47,-1.77 -0.35,-0.06 -0.26,1.18 -0.44,-0.24 -0.1,-0.75 0,-0.98 -0.29,-1.7 -0.32,-0.02 0.14,1.28 -0.54,-0.1 -1.17,-2.39 -0.59,-4.07 -1.23,-5.09 -0.55,1.96 -1.04,3.55 -0.31,5.6 -2.1,-0.9 -3.11,-4.97 -3.08,-8.07 -1.21,1.77 -1.27,5.23 -0.24,7.1l-2.81 -1.83c0.81,3.09 3.06,3.89 4.07,5.44l-1.81 -0.84c-0.32,-0.63 0.86,0.49 -0.36,-0.73 -0.34,-0.34 -0.59,-0.71 -0.81,-1.14l-2.28 0.23 0.89 0.46c-1.74,0.5 -2.31,1.01 -3,2.29l1.66 -0.8 -1.41 1.48c0.13,3.77 1.52,4.09 -0.48,8.18 0.32,-3.65 0.92,-4.92 -0.38,-8.66 -0.62,-1.79 -2.84,-5.88 -2.71,-7.55 2.42,-0.62 1.94,1.98 2.1,3.61l2.76 -3.29 -0.86 -0.12 0.75 -1.14c-1.11,0.56 -1.45,0.13 -1.83,-0.72l2.87 0.67c0.12,0.37 -0.09,1.36 -0.14,1.8 0.49,-0.28 1.08,-1.12 1.45,-1.63 0.7,-0.96 0.36,-1.39 0.13,-2.58l-0.67 0.56 -1.46 -0.86c0.32,-1.42 0.26,0.04 -0.72,-1.55 -0.73,-1.16 -0.67,-0.85 -1.23,-1.41 -0.89,-0.87 -1.6,-2.22 -3.28,-2.54l0.9 0.96 -3.49 -1.42 2.49 2.15c-1.72,-0.3 -3.44,-1.06 -4.79,-1.85 -1.84,-1.07 -2.28,-2.01 -3.5,-3.18 0.45,1.9 2.19,3.12 3.05,4.13z"/>
    <path class="fil0" d="M24.61 32.93c2.57,-2.23 3.99,-4.96 3.12,-8.73 -0.46,-1.99 -2.28,-4.92 -3.3,-8.26l-0.29 -0.61c-0.42,2.02 -0.13,1.65 0.29,2.85 0.22,0.62 -0.22,0.19 0.01,0.94l1.69 3.75c0.27,1.08 -0.47,-0.76 -0.17,0.58 0.61,2.71 1.32,3.99 -0.26,7.51 -0.31,0.7 -0.89,1.45 -1.09,1.97z"/>
    <path class="fil0" d="M15.01 27.9c0.6,-0.79 1.17,-2.46 0.47,-3.56 -0.24,0.63 -0.2,1.07 -0.55,1.83 -0.81,1.79 -2,3.03 -2.42,5.09 -0.55,2.65 1.1,6.28 2.48,7.07 -0.83,-1.62 -1.49,-3.38 -1.12,-5.57 0.03,-0.23 0.14,-0.61 0.16,-0.8 0.13,-1.3 -0.47,0.28 0.4,-1.54 0.35,-0.73 0.66,-1.77 1.04,-2.47l-0.46 -0.05z"/>
   </g>
   <polygon class="fil0 str0" points="27.03,11.11 27.73,12.15 28.7,12.15 "/>
   <polygon class="fil0 str0" points="38.93,22.68 39.18,23.91 40.07,24.28 "/>
   <polygon class="fil0 str0" points="10.08,20.66 9.83,21.89 8.93,22.26 "/>
  </g>
 </g>
</svg>
