<svg width="112" height="35" viewBox="0 0 112 35" fill="none" xmlns="http://www.w3.org/2000/svg">
<path fill-rule="evenodd" clip-rule="evenodd" d="M8.21712 19.7613L8.58503 19.8061C8.28718 20.3658 8.03516 21.1914 7.75942 21.7709C7.06623 23.2277 7.54496 21.9627 7.43654 23.0025C7.42108 23.1512 7.33796 23.456 7.30786 23.6358C7.01667 25.3849 7.5399 26.7897 8.20726 28.0853C7.10272 27.4491 5.78906 24.555 6.22224 22.4455C6.55951 20.803 7.5082 19.8143 8.15744 18.3842C8.43344 17.776 8.40733 17.4256 8.59515 16.9213C9.14902 17.8039 8.69958 19.135 8.21712 19.7613ZM15.7349 12.0125C15.3982 11.0542 15.1693 11.3476 15.4986 9.73732L15.7357 10.2273C16.5504 12.8856 17.997 15.2266 18.3644 16.8126C19.0603 19.8165 17.9238 21.9992 15.8772 23.7778C16.0336 23.3577 16.4945 22.763 16.7462 22.2012C18.0034 19.395 17.4357 18.3786 16.9503 16.211C16.7113 15.1448 17.3062 16.6128 17.0864 15.7501L15.7392 12.758C15.5546 12.1617 15.9073 12.503 15.7349 12.0125ZM12.188 3.29027L10.4475 2.52298C11.5869 3.95764 12.2735 3.72932 13.3428 4.67564C9.60564 4.3261 8.42305 2.31304 7.4725 1.83003C8.04848 3.40216 9.32458 3.90382 10.3705 4.90955L8.48353 4.40362L11.5406 6.00773L10.8679 7.02971L12.8071 6.47849C12.1405 6.98575 11.1793 8.36473 11.1018 9.6494L12.4863 8.53257C11.8549 9.65872 11.06 10.8427 11.2867 12.6623L12.0044 11.2197C11.9559 12.3274 11.9644 13.6233 12.5972 14.3943L12.6297 12.7097C13.2302 15.5626 13.3037 16.1503 12.9134 19.0462L13.857 17.5809C14.3789 19.3806 12.5372 22.0514 11.6493 22.571L11.6717 18.3232L12.3899 19.7975C12.8092 17.4685 11.9138 16.3589 11.0134 15.1651L12.615 16.1383C12.0316 14.495 11.5009 14.365 10.1347 13.5458L10.8879 13.4144C10.4049 13.0969 9.39571 12.6775 8.8517 12.7335C8.55812 12.7636 8.35672 13.0196 8.08711 13.2311C7.07129 14.0291 7.92939 13.525 7.86386 13.7419L6.69298 13.8524C8.04208 13.0358 9.3768 11.8505 9.83103 9.98402L6.81793 11.8532C7.63261 10.0895 7.651 7.45012 6.52914 5.86759C6.51556 8.24751 6.04561 11.3454 4.36829 12.0831C4.71116 10.9176 4.65921 8.77475 3.99958 7.80419L3.01839 12.3655C2.64915 12.2742 2.55724 11.4213 2.4544 12.8904C2.34518 14.4503 2.3252 13.5202 2.11473 13.5458C1.8755 14.3072 1.85924 15.2804 1.26408 15.4685L1.65278 16.0269C-0.403909 17.5386 0.592997 16.3229 0.00582953 16.6535C-0.072495 18.5464 0.645481 18.7484 1.73536 19.6081L1.43006 18.353L5.07641 16.4662C4.5292 17.3028 4.08963 18.5262 2.9803 18.0997L3.13775 18.6522L2.3838 18.9391L5.0146 21.1344C5.20535 19.0889 3.76514 18.1468 6.89173 18.1484L6.22544 17.6723L7.32944 17.0542C7.60198 18.6256 5.57912 20.6408 5.21468 22.7801C4.85929 24.8677 5.87857 27.7256 7.07582 28.543C8.45609 29.485 10.7619 30.2638 12.3169 31.1843C14.4245 32.4316 15.0993 33.3497 16.5211 34.9994C17.668 33.8761 17.6632 33.3284 19.6437 31.878C20.8287 31.0103 22.2263 30.3727 23.7528 29.6617C26.1326 28.5534 25.9312 28.8574 27.2646 26.8411C28.1718 25.4696 28.6366 23.3302 27.8675 21.7528C28.0644 24.6943 26.5962 26.3805 24.1247 26.9141C20.8713 27.6169 20.0305 27.1171 16.8733 28.5251C18.4307 27.0292 20.8431 27.091 22.2175 25.679C23.4912 24.3709 24.1974 21.3937 23.0974 19.3318C23.082 20.9178 23.0029 21.8508 22.0534 22.7542C22.3757 21.2066 21.9942 20.7841 21.914 20.1346C21.8112 19.2996 21.9236 19.9497 21.9961 19.833C22.1205 19.6324 22.1168 19.9385 22.0462 19.5634C22.0041 19.3393 21.9458 19.3028 21.9279 18.985C21.7886 16.4846 24.5217 18.6698 24.7513 18.7479L24.0088 19.2354C27.0491 19.2271 25.9843 20.1764 25.8252 22.243L28.5985 19.8871L27.8723 19.9038L28.0873 19.2519C27.3973 19.3254 27.4655 19.6302 26.8725 18.9589C26.5855 18.6341 26.1556 18.0917 25.9888 17.7467C26.8869 17.8359 27.1591 18.2992 27.6842 18.5928C28.2384 18.9026 28.3329 18.7199 28.7304 18.8944C28.7331 18.8954 29.4812 19.4277 29.482 19.4283L29.3029 20.6892C29.6823 20.5302 30.2255 19.8687 30.5186 19.5524C31.2048 18.8115 31.0237 18.8552 30.9691 17.6038C29.8088 18.2195 30.5449 17.6691 29.3834 17.204C29.9021 16.1812 29.7417 17.1944 29.3288 16.1766C29.1929 15.842 29.0802 15.1794 28.9555 14.7668C28.6809 14.7111 28.7483 15.7046 28.6028 14.5704C28.5255 13.9694 28.6049 13.789 28.3764 13.2127C28.1163 13.2 28.4856 14.239 27.9456 13.1371C27.0091 11.2274 27.4764 9.89078 26.9612 9.0742C26.5221 10.637 26.1324 11.903 26.7166 13.5439C25.0409 12.823 24.2331 9.57534 24.2569 7.10644C23.2964 8.51739 23.2458 11.2748 24.0704 12.767L21.8269 11.3055C22.4735 13.7701 24.2704 14.4146 25.0691 15.6454L23.6273 14.9804C23.3774 14.4718 24.3147 15.3659 23.3449 14.3986C23.0721 14.1263 22.8705 13.8319 22.6968 13.488L20.8774 13.6659L21.5872 14.0338C20.2018 14.4383 19.7487 14.8395 19.1964 15.8649L20.5175 15.2277L19.3954 16.4036C19.5009 19.415 20.6049 19.667 19.0078 22.9317C19.2681 20.0176 19.7487 19.0087 18.7105 16.0264C18.2117 14.5933 16.4388 11.3297 16.5496 10.0032C18.4744 9.50633 18.0951 11.5812 18.2237 12.8763L20.4256 10.2582L19.7335 10.1612L20.3324 9.25004C19.4519 9.69842 19.1828 9.35767 18.8791 8.68097L21.1628 9.21301C21.2629 9.51006 21.0922 10.2973 21.0498 10.6447C21.4417 10.4207 21.9106 9.75597 22.2068 9.35075C22.7668 8.58453 22.4938 8.23712 22.3129 7.2884L21.78 7.73812L20.6102 7.05262C20.8679 5.92035 20.8244 7.08166 20.0375 5.81431C19.4604 4.88531 19.5017 5.13201 19.0555 4.69056C18.3508 3.99307 17.7842 2.91648 16.4391 2.66658L17.1573 3.42614L14.3744 2.29199L16.3618 4.01199C14.9903 3.77515 13.6162 3.16611 12.5423 2.53657C11.0778 1.6779 10.7203 0.933529 9.74737 0C10.1094 1.51032 11.498 2.48915 12.188 3.29027Z" fill="#00FBFB"/>
<path fill-rule="evenodd" clip-rule="evenodd" d="M17.8079 6.37033L18.366 7.19916H19.1375L17.8079 6.37033Z" fill="#004F4F" stroke="#004F4F" stroke-width="0.36" stroke-miterlimit="22.9256"/>
<path fill-rule="evenodd" clip-rule="evenodd" d="M27.2954 15.6004L27.4952 16.5795L28.2084 16.8739L27.2954 15.6004Z" fill="#004F4F" stroke="#004F4F" stroke-width="0.36" stroke-miterlimit="22.9256"/>
<path fill-rule="evenodd" clip-rule="evenodd" d="M4.28701 13.9888L4.0872 14.9679L3.37402 15.2623L4.28701 13.9888Z" fill="#004F4F" stroke="#004F4F" stroke-width="0.36" stroke-miterlimit="22.9256"/>
<path d="M46.7172 21H45.7773V17.3853H42.5708V21H41.6362V13.1797H42.5708V16.542H45.7773V13.1797H46.7172V21ZM57.593 17.106L59.3762 13.1797H60.5042L58.071 18.0835L58.0549 21H57.1311L57.115 18.0835L54.6819 13.1797H55.8152L57.593 17.106ZM68.6622 21V13.1797H70.4722C70.7766 13.1833 71.063 13.2155 71.3316 13.2764C71.6037 13.3337 71.8544 13.416 72.0835 13.5234C72.4022 13.6702 72.6833 13.8636 72.9268 14.1035C73.1739 14.3398 73.3708 14.6138 73.5176 14.9253C73.6501 15.1903 73.7504 15.4803 73.8184 15.7954C73.89 16.1105 73.9276 16.4471 73.9312 16.8052V17.3799C73.9312 17.7236 73.8972 18.0495 73.8291 18.3574C73.7647 18.6654 73.6698 18.9482 73.5445 19.2061C73.4156 19.4746 73.2526 19.7181 73.0557 19.9365C72.8588 20.1549 72.6386 20.3411 72.3951 20.4951C72.1373 20.6562 71.8454 20.7798 71.5196 20.8657C71.1973 20.9517 70.8482 20.9964 70.4722 21H68.6622ZM69.6719 13.9961V20.189H70.4722C70.7587 20.1854 71.0183 20.1496 71.251 20.0815C71.4874 20.0135 71.6968 19.9168 71.8794 19.7915C72.0728 19.6626 72.2393 19.505 72.379 19.3188C72.5222 19.1291 72.635 18.9178 72.7173 18.6851C72.7889 18.4953 72.8427 18.2912 72.8785 18.0728C72.9143 17.8507 72.934 17.6198 72.9375 17.3799V16.7944C72.934 16.5509 72.9125 16.3182 72.8731 16.0962C72.8373 15.8706 72.7818 15.6611 72.7066 15.4678C72.6099 15.2171 72.4792 14.9915 72.3145 14.791C72.1534 14.5869 71.9546 14.4222 71.7183 14.2969C71.55 14.2038 71.362 14.1322 71.1543 14.082C70.9467 14.0283 70.7193 13.9997 70.4722 13.9961H69.6719ZM84.8285 17.8096H83.2655V21H82.2772V13.1797H84.5707C84.9359 13.1868 85.2796 13.2388 85.6019 13.3354C85.9242 13.4321 86.207 13.5771 86.4505 13.7705C86.6904 13.9639 86.8784 14.2074 87.0145 14.501C87.1541 14.791 87.224 15.133 87.224 15.5269C87.224 15.7811 87.1864 16.0138 87.1112 16.2251C87.0396 16.4364 86.9393 16.6279 86.8104 16.7998C86.6815 16.9717 86.5275 17.1239 86.3485 17.2563C86.1694 17.3888 85.9725 17.5016 85.7577 17.5947L87.4173 20.9355L87.412 21H86.3646L84.8285 17.8096ZM83.2655 16.9932H84.5975C84.8195 16.9896 85.029 16.9556 85.2259 16.8911C85.4229 16.8231 85.5965 16.7264 85.7469 16.6011C85.8937 16.4757 86.0101 16.3236 86.096 16.1445C86.182 15.9619 86.2249 15.7524 86.2249 15.5161C86.2249 15.2655 86.1838 15.047 86.1014 14.8608C86.0191 14.6711 85.9045 14.5117 85.7577 14.3828C85.6109 14.2575 85.4354 14.1626 85.2313 14.0981C85.0308 14.0337 84.8106 13.9997 84.5707 13.9961H83.2655V16.9932ZM99.4479 18.9751H96.8375L96.2091 21H95.2155L97.7399 13.1797H98.5724L101.054 21H100.066L99.4479 18.9751ZM97.1061 18.1104H99.1847L98.1535 14.7158L97.1061 18.1104Z" fill="#00FBFB"/>
</svg>
