<svg width="126" height="136" viewBox="0 0 126 136" fill="none" xmlns="http://www.w3.org/2000/svg">
<path fill-rule="evenodd" clip-rule="evenodd" d="M42.5078 54.8457L43.5155 54.9683C42.6997 56.5015 42.0093 58.7631 41.2541 60.3503C39.3553 64.3406 40.6666 60.8757 40.3696 63.7239C40.3273 64.1311 40.0996 64.966 40.0172 65.4585C39.2196 70.2494 40.6528 74.0974 42.4808 77.6462C39.4553 75.9035 35.857 67.9762 37.0435 62.198C37.9674 57.6991 40.5659 54.991 42.3443 51.0736C43.1003 49.4076 43.0288 48.448 43.5432 47.0666C45.0604 49.4842 43.8293 53.1301 42.5078 54.8457ZM63.1 33.6208C62.1777 30.9959 61.5508 31.7994 62.4528 27.3887L63.1022 28.7308C65.3338 36.0122 69.2962 42.4246 70.3025 46.7688C72.2085 54.9968 69.0955 60.9757 63.4897 65.8475C63.9181 64.6967 65.1805 63.0679 65.8701 61.5288C69.3137 53.8423 67.7587 51.0583 66.4291 45.121C65.7745 42.2006 67.404 46.2215 66.802 43.8586L63.1117 35.6627C62.606 34.0295 63.5722 34.9643 63.1 33.6208ZM53.3844 9.72941L48.6171 7.62772C51.7381 11.5574 53.6186 10.932 56.5478 13.5241C46.3111 12.5667 43.0718 7.05267 40.4682 5.72963C42.0458 10.0359 45.5412 11.41 48.4062 14.1649L43.2375 12.7791L51.6111 17.1729L49.7686 19.9722L55.0803 18.4624C53.2545 19.8518 50.6216 23.629 50.4093 27.1479L54.2017 24.0888C52.4722 27.1735 50.2947 30.4165 50.9157 35.4007L52.8816 31.4491C52.7488 34.4834 52.7722 38.0329 54.5053 40.1448L54.5943 35.5306C56.2391 43.3448 56.4405 44.9546 55.3715 52.8871L57.9562 48.8734C59.3857 53.8029 54.3411 61.1187 51.9089 62.5417L51.9702 50.9065L53.9375 54.945C55.0861 48.5655 52.6335 45.5261 50.167 42.256L54.5542 44.9218C52.9561 40.4207 51.5024 40.0646 47.7604 37.8206L49.8233 37.4608C48.5003 36.5909 45.7361 35.4423 44.246 35.5956C43.4418 35.678 42.8901 36.3793 42.1516 36.9587C39.3692 39.1444 41.7196 37.7636 41.5401 38.3577L38.333 38.6605C42.0283 36.4238 45.6843 33.1772 46.9285 28.0645L38.6752 33.1844C40.9067 28.3535 40.9571 21.1238 37.8842 16.7891C37.847 23.308 36.5597 31.7935 31.9653 33.8142C32.9045 30.6215 32.7622 24.7521 30.9554 22.0936L28.2678 34.5878C27.2564 34.3375 27.0046 32.0015 26.7229 36.0254C26.4237 40.2981 26.369 37.7505 25.7925 37.8206C25.1372 39.9062 25.0927 42.572 23.4625 43.0872L24.5272 44.6168C18.8936 48.7574 21.6243 45.4275 20.016 46.3332C19.8014 51.5181 21.7681 52.0712 24.7534 54.4261L23.9171 50.9883L33.9049 45.8201C32.4061 48.1116 31.202 51.4626 28.1634 50.2943L28.5947 51.8078L26.5296 52.5937L33.7356 58.6069C34.2581 53.0038 30.3132 50.4234 38.8773 50.4278L37.0523 49.1237L40.0763 47.4307C40.8228 51.7348 35.282 57.2547 34.2837 63.1146C33.3102 68.8329 36.1022 76.661 39.3816 78.8999C43.1623 81.4803 49.4781 83.6134 53.7376 86.1347C59.5105 89.5514 61.3589 92.0661 65.2535 96.5848C68.395 93.5081 68.3818 92.0077 73.8067 88.035C77.0525 85.6581 80.8807 83.9118 85.062 81.9641C91.5807 78.9284 91.0291 79.761 94.6814 74.2382C97.1661 70.4814 98.4395 64.6215 96.3328 60.3007C96.872 68.3579 92.8505 72.9765 86.0807 74.4382C77.1693 76.3633 74.8662 74.9943 66.2182 78.851C70.4842 74.7534 77.0919 74.9227 80.8566 71.055C84.3454 67.4719 86.28 59.3169 83.2669 53.6694C83.2246 58.0136 83.0079 60.5692 80.4071 63.0438C81.2901 58.8047 80.2451 57.6473 80.0254 55.8681C79.7438 53.5811 80.0517 55.3617 80.2502 55.042C80.591 54.4925 80.5808 55.331 80.3874 54.3035C80.2721 53.6898 80.1123 53.5898 80.0634 52.7192C79.6817 45.8705 87.168 51.8559 87.7971 52.0698L85.7633 53.4052C94.091 53.3826 91.1743 55.9827 90.7386 61.6434L98.3351 55.1902L96.3459 55.2362L96.9348 53.4505C95.0448 53.6519 95.2316 54.4867 93.6072 52.6477C92.8213 51.7582 91.6435 50.2724 91.1867 49.3273C93.6466 49.5718 94.3924 50.8409 95.8307 51.645C97.3485 52.4937 97.6076 51.9931 98.6964 52.4711C98.7037 52.474 100.753 53.9321 100.755 53.9335L100.265 57.3875C101.304 56.9518 102.792 55.1398 103.594 54.2736C105.474 52.2442 104.978 52.3638 104.828 48.9362C101.65 50.6226 103.667 49.115 100.485 47.8408C101.906 45.0393 101.466 47.8146 100.335 45.0269C99.9632 44.1103 99.6545 42.2954 99.313 41.165C98.5606 41.0125 98.7452 43.7338 98.3468 40.6272C98.1352 38.9809 98.3526 38.4868 97.7265 36.9084C97.0143 36.8734 98.0257 39.7194 96.5466 36.7011C93.9816 31.4703 95.2615 27.8091 93.8502 25.5724C92.6476 29.8531 91.58 33.3209 93.1803 37.8155C88.5903 35.8408 86.3777 26.945 86.4427 20.1824C83.812 24.0472 83.6734 31.6001 85.9319 35.6875L79.7868 31.6841C81.5579 38.435 86.4799 40.2003 88.6676 43.5718L84.7183 41.7503C84.0339 40.3572 86.6011 42.8063 83.9448 40.1565C83.1976 39.4107 82.6452 38.6043 82.1694 37.6622L77.1861 38.1497L79.1301 39.1575C75.3355 40.2652 74.0942 41.3643 72.5815 44.1731L76.2002 42.4275L73.1266 45.6486C73.4155 53.8971 76.4395 54.5874 72.0648 63.5298C72.7777 55.5478 74.0942 52.7842 71.2504 44.6153C69.8844 40.69 65.028 31.7505 65.3316 28.117C70.6039 26.756 69.5647 32.4394 69.9172 35.9867L75.9484 28.8154L74.0526 28.5498L75.693 26.054C73.2813 27.2822 72.5442 26.3488 71.7123 24.4953L77.9676 25.9526C78.242 26.7663 77.7742 28.9227 77.6582 29.8743C78.7316 29.2606 80.016 27.4398 80.8274 26.3299C82.3613 24.2311 81.6133 23.2795 81.1178 20.6808L79.6584 21.9127L76.4541 20.035C77.1598 16.9335 77.0408 20.1145 74.8852 16.6431C73.3046 14.0985 73.4177 14.7742 72.1954 13.565C70.2653 11.6545 68.7131 8.70557 65.0287 8.02106L66.9961 10.1016L59.3733 6.99502L64.8171 11.7063C61.0604 11.0576 57.2965 9.38935 54.3549 7.66494C50.3436 5.31294 49.3643 3.27401 46.6993 0.716949C47.691 4.85393 51.4944 7.53504 53.3844 9.72941Z" fill="#00FBFB"/>
<path fill-rule="evenodd" clip-rule="evenodd" d="M68.7781 18.1661L70.3069 20.4364H72.4202L68.7781 18.1661Z" fill="#083D3D" stroke="#083D3D" stroke-width="2.36" stroke-miterlimit="22.9256"/>
<path fill-rule="evenodd" clip-rule="evenodd" d="M94.7653 43.4484L95.3126 46.1303L97.266 46.9367L94.7653 43.4484Z" fill="#083D3D" stroke="#083D3D" stroke-width="2.36" stroke-miterlimit="22.9256"/>
<path fill-rule="evenodd" clip-rule="evenodd" d="M31.7427 39.0341L31.1954 41.716L29.2419 42.5224L31.7427 39.0341Z" fill="#083D3D" stroke="#083D3D" stroke-width="2.36" stroke-miterlimit="22.9256"/>
<path d="M12.4562 123.283H10.4909V115.725H3.78633V123.283H1.83223V106.931H3.78633V113.962H10.4909V106.931H12.4562V123.283ZM34.9102 115.141L38.6387 106.931H40.9971L35.9097 117.185L35.876 123.283H33.9443L33.9106 117.185L28.8232 106.931H31.1929L34.9102 115.141ZM57.7684 123.283V106.931H61.553C62.1894 106.939 62.7884 107.006 63.3499 107.134C63.9189 107.253 64.443 107.426 64.9222 107.65C65.5885 107.957 66.1762 108.362 66.6854 108.863C67.202 109.357 67.6137 109.93 67.9207 110.581C68.1977 111.135 68.4074 111.742 68.5496 112.401C68.6993 113.06 68.778 113.763 68.7854 114.512V115.714C68.7854 116.432 68.7143 117.114 68.5721 117.758C68.4373 118.402 68.2389 118.993 67.9769 119.532C67.7073 120.094 67.3667 120.603 66.9549 121.059C66.5431 121.516 66.0827 121.905 65.5735 122.227C65.0345 122.564 64.4243 122.823 63.743 123.002C63.0691 123.182 62.3392 123.276 61.553 123.283H57.7684ZM59.8797 108.639V121.587H61.553C62.152 121.58 62.6948 121.505 63.1814 121.363C63.6756 121.22 64.1136 121.018 64.4954 120.756C64.8997 120.487 65.2479 120.157 65.5398 119.768C65.8393 119.371 66.0752 118.929 66.2474 118.443C66.3971 118.046 66.5094 117.619 66.5843 117.162C66.6591 116.698 66.7003 116.215 66.7078 115.714V114.49C66.7003 113.98 66.6554 113.494 66.573 113.03C66.4982 112.558 66.3821 112.12 66.2249 111.716C66.0228 111.192 65.7495 110.72 65.4051 110.301C65.0682 109.874 64.6526 109.529 64.1585 109.267C63.8066 109.073 63.4135 108.923 62.9793 108.818C62.5451 108.706 62.0696 108.646 61.553 108.639H59.8797ZM91.2843 116.612H88.0162V123.283H85.9498V106.931H90.7452C91.5089 106.946 92.2276 107.055 92.9015 107.257C93.5753 107.459 94.1668 107.763 94.6759 108.167C95.1775 108.571 95.5706 109.08 95.8551 109.694C96.1471 110.301 96.2931 111.016 96.2931 111.839C96.2931 112.371 96.2144 112.857 96.0572 113.299C95.9075 113.741 95.6978 114.141 95.4283 114.501C95.1588 114.86 94.8368 115.178 94.4625 115.455C94.0881 115.732 93.6764 115.968 93.2271 116.163L96.6974 123.148L96.6861 123.283H94.4962L91.2843 116.612ZM88.0162 114.905H90.8014C91.2656 114.898 91.7035 114.827 92.1153 114.692C92.5271 114.549 92.8902 114.347 93.2047 114.085C93.5116 113.823 93.755 113.505 93.9347 113.131C94.1143 112.749 94.2042 112.311 94.2042 111.817C94.2042 111.293 94.1181 110.836 93.9459 110.447C93.7737 110.05 93.5341 109.717 93.2271 109.447C92.9202 109.185 92.5533 108.987 92.1266 108.852C91.7073 108.717 91.2468 108.646 90.7452 108.639H88.0162V114.905ZM121.566 119.049H116.108L114.794 123.283H112.716L117.995 106.931H119.735L124.924 123.283H122.857L121.566 119.049ZM116.669 117.241H121.016L118.859 110.143L116.669 117.241Z" fill="#00FBFB"/>
</svg>
